<svg display="none" xmlns="http://www.w3.org/2000/svg">
  <symbol width="132" height="55" viewBox="0 0 132 55" id="logo-icon">
    <path d="M52.0886 19.4616L67.2122 0.327138L67.2468 51.6025L59.8614 17.9246L52.0886 19.4616ZM54.8045 32.3397L66.2326 53.327L15.0399 27.5322L54.9092 37.5122L54.8045 32.3397ZM40.7723 27.8478L14.2566 26.0094L65.0785 0.32674L35.6349 25.3602L40.7723 27.8478Z" fill="#EF0000"/>
    <path d="M78.9227 0V54.5973" stroke="#212121" stroke-width="9"/>
    <path d="M93.4987 51.6869C92.6454 51.6869 91.8881 51.5162 91.2267 51.1749C90.5654 50.8335 90.0534 50.2575 89.6907 49.4469C89.3281 48.6362 89.1467 47.5269 89.1467 46.1189V36.9029C89.1467 35.1535 89.6587 33.9162 90.6827 33.1909C91.7067 32.4655 93.0721 32.1029 94.7787 32.1029C96.5281 32.1029 97.9254 32.4762 98.9707 33.2229C100.037 33.9482 100.571 35.1749 100.571 36.9029V51.3989H95.8027L95.7067 50.8869C95.4294 51.1215 95.1094 51.3135 94.7467 51.4629C94.4054 51.6122 93.9894 51.6869 93.4987 51.6869ZM93.4987 51.1109C94.1814 51.1109 94.7147 50.9615 95.0987 50.6629C95.4827 50.3642 95.7707 50.0229 95.9627 49.6389L96.2507 50.8229H100.027V41.0309H94.5867V36.6149C94.5867 36.2309 94.7041 36.0389 94.9387 36.0389C95.1521 36.0389 95.2587 36.2309 95.2587 36.6149V39.8149H100.027V36.9029C100.027 35.3882 99.5361 34.3109 98.5547 33.6709C97.5947 33.0095 96.3361 32.6789 94.7787 32.6789C93.2427 32.6789 92.0054 33.0095 91.0667 33.6709C90.1494 34.3109 89.6907 35.3882 89.6907 36.9029V46.1189C89.6907 47.9962 90.0427 49.2975 90.7467 50.0229C91.4507 50.7482 92.3681 51.1109 93.4987 51.1109ZM93.4987 50.8229C92.4107 50.8229 91.5467 50.4815 90.9067 49.7989C90.2881 49.0949 89.9787 47.8682 89.9787 46.1189V36.9029C89.9787 35.4735 90.4161 34.4602 91.2907 33.8629C92.1654 33.2655 93.3281 32.9669 94.7787 32.9669C96.2507 32.9669 97.4454 33.2655 98.3627 33.8629C99.2801 34.4602 99.7387 35.4735 99.7387 36.9029V39.5269H95.5467V36.6149C95.5467 36.2735 95.4827 36.0495 95.3547 35.9429C95.2481 35.8149 95.1094 35.7509 94.9387 35.7509C94.7681 35.7509 94.6187 35.8149 94.4907 35.9429C94.3841 36.0495 94.3307 36.2735 94.3307 36.6149V47.3349C94.3307 47.6762 94.3841 47.9109 94.4907 48.0389C94.6187 48.1455 94.7681 48.1989 94.9387 48.1989C95.1094 48.1989 95.2481 48.1455 95.3547 48.0389C95.4827 47.9109 95.5467 47.6762 95.5467 47.3349V43.9109H94.8427V41.3189H99.7387V50.5349H96.4747L96.0907 48.7109C95.9201 49.1802 95.6427 49.6495 95.2587 50.1189C94.8747 50.5882 94.2881 50.8229 93.4987 50.8229ZM94.9387 47.9109C94.7041 47.9109 94.5867 47.7189 94.5867 47.3349V44.1989H95.2587V47.3349C95.2587 47.7189 95.1521 47.9109 94.9387 47.9109ZM101.022 51.3989V35.5269H108.702V39.8789H106.11V40.9349H108.478V45.6389H106.11V47.0789H108.702V51.3989H101.022ZM101.534 50.8229H108.19V47.6549H105.598V45.0629H107.966V41.4789H105.598V39.3349H108.19V36.1029H101.534V50.8229ZM101.79 50.5349V36.3909H107.934V39.0469H105.342V41.7669H107.71V44.7749H105.342V47.9429H107.934V50.5349H101.79ZM108.986 51.3989L111.194 35.5269H117.978L120.122 51.3989H108.986ZM109.626 50.8229H114.17L114.234 49.7989C114.255 49.6282 114.266 49.4575 114.266 49.2869C114.287 49.0949 114.309 48.9242 114.33 48.7749H114.65L114.81 50.8229H119.482L117.498 36.1029H111.642L109.626 50.8229ZM109.946 50.5349L111.898 36.3909H117.242L119.162 50.5349H115.066L114.906 48.4869H114.042L113.914 50.5349H109.946ZM114.042 46.6309H114.906L114.49 39.3669L114.042 46.6309ZM114.33 46.3429L114.458 44.1029C114.458 44.2095 114.469 44.4229 114.49 44.7429C114.511 45.0629 114.533 45.3829 114.554 45.7029C114.597 46.0229 114.618 46.2362 114.618 46.3429H114.33ZM120.491 51.3989V35.5269H126.571C127.873 35.5269 128.811 35.8362 129.387 36.4549C129.963 37.0522 130.251 37.8309 130.251 38.7909V40.9349C130.251 41.4895 130.177 42.0335 130.027 42.5669C129.878 43.1002 129.601 43.5482 129.195 43.9109C129.302 44.0602 129.409 44.2415 129.515 44.4549C129.622 44.6682 129.718 44.9135 129.803 45.1909L131.307 51.3989H120.491ZM121.035 50.8229H125.323V47.1109L125.483 47.7829C125.526 47.9962 125.569 48.2095 125.611 48.4229C125.654 48.6149 125.697 48.8175 125.739 49.0309L126.091 50.7269L130.603 50.8229L129.355 45.5109C129.014 44.6575 128.673 44.1029 128.331 43.8469C128.929 43.5482 129.302 43.1429 129.451 42.6309C129.622 42.1189 129.707 41.5535 129.707 40.9349V38.7909C129.707 38.0015 129.462 37.3615 128.971 36.8709C128.481 36.3589 127.681 36.1029 126.571 36.1029H121.035V50.8229ZM121.291 50.5349V36.3909H126.571C127.595 36.3909 128.321 36.6149 128.747 37.0629C129.195 37.5109 129.419 38.0869 129.419 38.7909V40.9349C129.419 41.6175 129.291 42.2255 129.035 42.7589C128.779 43.2922 128.278 43.6549 127.531 43.8469C127.83 43.8895 128.097 44.0069 128.331 44.1989C128.587 44.3695 128.811 44.7642 129.003 45.3829L130.251 50.5349H126.219C126.134 49.9802 126.038 49.4469 125.931 48.9349C125.846 48.4229 125.761 47.9429 125.675 47.4949C125.654 47.3455 125.611 47.1002 125.547 46.7589C125.483 46.4175 125.419 46.0655 125.355 45.7029C125.291 45.3189 125.227 44.9882 125.163 44.7109C125.121 44.4335 125.099 44.2842 125.099 44.2629H125.067V50.5349H121.291ZM125.067 42.8549H125.355C125.505 42.8549 125.622 42.7269 125.707 42.4709C125.793 42.2362 125.835 41.6602 125.835 40.7429C125.835 40.3162 125.835 39.9429 125.835 39.6229C125.835 39.3029 125.825 39.0575 125.803 38.8869C125.782 38.5455 125.654 38.3749 125.419 38.3749H125.067V42.8549ZM125.323 42.5669V38.6629H125.419C125.462 38.6629 125.505 38.8122 125.547 39.1109V40.7429C125.547 41.1269 125.547 41.4469 125.547 41.7029C125.547 41.9375 125.537 42.1082 125.515 42.2149C125.473 42.4495 125.419 42.5669 125.355 42.5669H125.323Z" fill="#212121"/>
    <path d="M90.2107 29.1984V10.2864H97.4747C98.9894 10.2864 100.088 10.6491 100.771 11.3744C101.453 12.0784 101.795 12.9851 101.795 14.0944V16.7184C101.795 17.4011 101.699 18.0517 101.507 18.6704C101.336 19.2891 100.995 19.8117 100.483 20.2384C100.653 20.4304 100.781 20.6437 100.867 20.8784C100.973 21.1131 101.101 21.4437 101.251 21.8704L103.043 29.1984H90.2107ZM90.7547 28.6224H95.9067V23.6944L96.8667 28.6224H102.339L100.771 22.2224C100.557 21.6037 100.355 21.1557 100.163 20.8784C99.9707 20.5797 99.7574 20.3557 99.5227 20.2064C100.141 19.8437 100.579 19.3424 100.835 18.7024C101.091 18.0624 101.219 17.4011 101.219 16.7184V14.0944C101.219 13.1557 100.92 12.3877 100.323 11.7904C99.7467 11.1717 98.7974 10.8624 97.4747 10.8624H90.7547V28.6224ZM91.0427 28.3344V11.1504H97.4747C98.6907 11.1504 99.5761 11.4277 100.131 11.9824C100.685 12.5157 100.963 13.2197 100.963 14.0944V16.7184C100.963 17.5717 100.803 18.3077 100.483 18.9264C100.163 19.5451 99.5547 19.9824 98.6587 20.2384C99.0854 20.2811 99.4374 20.4304 99.7147 20.6864C99.9921 20.9424 100.237 21.4117 100.451 22.0944L101.987 28.3344H97.1227L95.6507 21.0704V28.3344H91.0427ZM95.6187 19.0224H95.9067C96.1414 19.0224 96.3014 18.8624 96.3867 18.5424C96.4721 18.2224 96.5147 17.6677 96.5147 16.8784V15.2784C96.5147 14.5317 96.4721 14.0624 96.3867 13.8704C96.3014 13.6784 96.1414 13.5824 95.9067 13.5824H95.6187V19.0224ZM95.8747 18.7344V13.9024H96.0027C96.1094 13.9024 96.1734 14.0091 96.1947 14.2224C96.2374 14.4144 96.2587 14.8837 96.2587 15.6304V16.8784C96.2587 17.6464 96.2267 18.1477 96.1627 18.3824C96.0987 18.6171 96.0454 18.7344 96.0027 18.7344H95.8747ZM103.366 29.1984V13.3264H111.046V17.6784H108.454V18.7344H110.822V23.4384H108.454V24.8784H111.046V29.1984H103.366ZM103.878 28.6224H110.534V25.4544H107.942V22.8624H110.31V19.2784H107.942V17.1344H110.534V13.9024H103.878V28.6224ZM104.134 28.3344V14.1904H110.278V16.8464H107.686V19.5664H110.054V22.5744H107.686V25.7424H110.278V28.3344H104.134ZM111.554 29.1984V13.3264H117.57C118.828 13.3264 119.735 13.6357 120.29 14.2544C120.866 14.8731 121.154 15.6517 121.154 16.5904V25.3584C121.154 26.8091 120.791 27.8117 120.066 28.3664C119.34 28.9211 118.327 29.1984 117.026 29.1984H111.554ZM112.098 28.6224H117.026C118.135 28.6224 119.01 28.3984 119.65 27.9504C120.311 27.4811 120.642 26.6171 120.642 25.3584V16.5904C120.642 15.8011 120.396 15.1611 119.906 14.6704C119.436 14.1584 118.658 13.9024 117.57 13.9024H112.098V28.6224ZM112.354 28.3344V14.1904H117.57C118.572 14.1904 119.287 14.4144 119.714 14.8624C120.14 15.3104 120.354 15.8864 120.354 16.5904V25.3584C120.354 26.4891 120.055 27.2677 119.458 27.6944C118.882 28.1211 118.071 28.3344 117.026 28.3344H112.354ZM116.066 26.4144H116.418C116.524 26.4144 116.61 26.3611 116.674 26.2544C116.716 26.2117 116.748 26.1477 116.77 26.0624C116.791 25.9771 116.802 25.8597 116.802 25.7104V17.0064C116.802 16.7291 116.759 16.5264 116.674 16.3984C116.61 16.3131 116.524 16.2704 116.418 16.2704H116.066V26.4144ZM116.354 26.1584V16.5584H116.418C116.482 16.5584 116.514 16.7077 116.514 17.0064V25.7104C116.514 26.0091 116.482 26.1584 116.418 26.1584H116.354Z" fill="#EF0000"/>
  </symbol>

  <symbol width="53" height="52" viewBox="0 0 53 52" id="lang-icon">
    <path d="M13.7413 36.2806C12.5718 36.2806 11.5709 35.8645 10.7388 35.0323C9.90661 34.2002 9.48982 33.1986 9.4884 32.0276V15.016H13.7413V32.0276H20.1207V15.016H24.3736V32.0276C24.3736 33.1972 23.9575 34.1988 23.1254 35.0323C22.2932 35.8659 21.2917 36.282 20.1207 36.2806H13.7413ZM32.8794 36.2806C31.7099 36.2806 30.709 35.8645 29.8769 35.0323C29.0447 34.2002 28.6279 33.1986 28.6265 32.0276V29.9012H32.8794V32.0276H39.2588V27.7747H32.8794C31.7099 27.7747 30.709 27.3586 29.8769 26.5265C29.0447 25.6943 28.6279 24.6928 28.6265 23.5218V19.2689C28.6265 18.0993 29.0433 17.0985 29.8769 16.2663C30.7105 15.4342 31.7113 15.0174 32.8794 15.016H39.2588C40.4284 15.016 41.4299 15.4328 42.2635 16.2663C43.0971 17.0999 43.5131 18.1008 43.5117 19.2689V21.3954H39.2588V19.2689H32.8794V23.5218H39.2588C40.4284 23.5218 41.4299 23.9386 42.2635 24.7722C43.0971 25.6057 43.5131 26.6066 43.5117 27.7747V32.0276C43.5117 33.1972 43.0957 34.1988 42.2635 35.0323C41.4313 35.8659 40.4298 36.282 39.2588 36.2806H32.8794Z" fill="#212121"/>
  </symbol>

  <symbol width="24" height="24" viewBox="0 0 24 24" id="gear-icon">
    <path d="M12 9C13.66 9 15 10.34 15 12C15 13.66 13.66 15 12 15C10.34 15 9 13.66 9 12C9 10.34 10.34 9 12 9Z" stroke="#212121" stroke-width="2" stroke-linecap="round"/>
    <path d="M15.24 6.36992C15.65 6.59992 16.04 6.87992 16.38 7.19992C16.38 7.19992 19 6.11992 19.01 6.13992L20.57 8.83992C20.58 8.86992 18.35 10.5899 18.35 10.5899C18.45 11.0399 18.5 11.5199 18.5 11.9999" stroke="#212121" stroke-width="2"/>
    <path d="M18.4957 11.9909C18.5015 12.4609 18.454 12.9387 18.3469 13.3931C18.3469 13.3931 20.5922 15.1221 20.5799 15.1408L19.0216 17.8418C19.0006 17.8654 16.3961 16.7942 16.3961 16.7942C16.0564 17.1058 15.6657 17.3891 15.25 17.6291" stroke="#212121" stroke-width="2"/>
    <path d="M15.2557 17.6208C14.8515 17.8609 14.414 18.0586 13.9669 18.1931C13.9669 18.1931 13.5922 21.0021 13.5699 21.0007L10.4516 21.0017C10.4207 20.9954 10.0461 18.2042 10.0461 18.2042C9.60638 18.0658 9.16568 17.8691 8.74999 17.6291" stroke="#212121" stroke-width="2"/>
    <path d="M8.76001 17.63C8.35001 17.4 7.96001 17.12 7.62001 16.8C7.62001 16.8 5.00001 17.88 4.99001 17.86L3.43001 15.16C3.42001 15.13 5.65001 13.41 5.65001 13.41C5.55001 12.96 5.50001 12.48 5.50001 12" stroke="#212121" stroke-width="2"/>
    <path d="M5.50429 12.009C5.49848 11.5389 5.54597 11.0612 5.6531 10.6067C5.6531 10.6067 3.40779 8.87775 3.42011 8.85909L4.97838 6.15809C4.99936 6.13443 7.60392 7.20567 7.60392 7.20567C7.94363 6.89407 8.33432 6.61077 8.75002 6.37077" stroke="#212121" stroke-width="2"/>
    <path d="M8.74428 6.37905C9.14847 6.13898 9.58596 5.94123 10.0331 5.80678C10.0331 5.80678 10.4078 2.9978 10.4301 2.99914L13.5484 2.99814C13.5793 3.00448 13.9539 5.79571 13.9539 5.79571C14.3936 5.93411 14.8343 6.13081 15.25 6.37081" stroke="#212121" stroke-width="2"/>
  </symbol>

  <symbol width="24" height="24" viewBox="0 0 24 24" id="strategy-icon">
    <path d="M16.2857 2.57141H18.8572C19.3118 2.57141 19.7479 2.75202 20.0693 3.07351C20.3908 3.395 20.5714 3.83104 20.5714 4.2857V21.4286C20.5714 21.8832 20.3908 22.3192 20.0693 22.6407C19.7479 22.9622 19.3118 23.1428 18.8572 23.1428H5.14287C4.68822 23.1428 4.25218 22.9622 3.93069 22.6407C3.6092 22.3192 3.42859 21.8832 3.42859 21.4286V4.2857C3.42859 3.83104 3.6092 3.395 3.93069 3.07351C4.25218 2.75202 4.68822 2.57141 5.14287 2.57141H7.7143" stroke="#212121" stroke-linecap="round" stroke-linejoin="round"/>
    <path d="M12.7749 15.1423L17.0606 19.428M17.064 15.1423L12.7783 19.428M14.5715 0.857178H9.42861C8.97395 0.857178 8.53791 1.03779 8.21642 1.35928C7.89493 1.68077 7.71432 2.11681 7.71432 2.57146V3.42861C7.71432 3.88326 7.89493 4.3193 8.21642 4.64079C8.53791 4.96228 8.97395 5.14289 9.42861 5.14289H14.5715C15.0261 5.14289 15.4622 4.96228 15.7836 4.64079C16.1051 4.3193 16.2857 3.88326 16.2857 3.42861V2.57146C16.2857 2.11681 16.1051 1.68077 15.7836 1.35928C15.4622 1.03779 15.0261 0.857178 14.5715 0.857178ZM6.93604 10.6338C6.93604 11.2021 7.1618 11.7471 7.56366 12.149C7.96553 12.5508 8.51057 12.7766 9.07889 12.7766C9.64721 12.7766 10.1923 12.5508 10.5941 12.149C10.996 11.7471 11.2217 11.2021 11.2217 10.6338C11.2217 10.0654 10.996 9.52039 10.5941 9.11852C10.1923 8.71666 9.64721 8.49089 9.07889 8.49089C8.51057 8.49089 7.96553 8.71666 7.56366 9.11852C7.1618 9.52039 6.93604 10.0654 6.93604 10.6338Z" stroke="#212121" stroke-linecap="round" stroke-linejoin="round"/>
  </symbol>

  <symbol width="24" height="24" viewBox="0 0 24 24" id="design-icon">
    <path d="M15 1.08603H24V24H0V0L15 15.276V1.08603ZM1.5 22.4724H19.9336L1.5 3.69965V22.4724ZM20.5664 20.9448L22.0664 22.4724H22.5V2.61363H16.5V4.14122H19.5V5.66882H16.5V7.19642H19.5V8.72402H16.5V10.2516H21V11.7792H16.5V13.3068H19.5V14.8344H16.5V16.362H19.5V17.8896H17.5664L19.0664 19.4172H21V20.9448H20.5664ZM4.5 12.2208L11.5664 19.4172H4.5V12.2208ZM6 15.9204V17.8896H7.93359L6 15.9204Z" fill="#212121"/>
  </symbol>

  <symbol width="24" height="24" viewBox="0 0 24 24" id="development-icon">
    <path d="M6 3V6H3V3H6ZM1.5 1.5V7.5H7.5V1.5H1.5ZM13.5 5.25V8.25H10.5V5.25H13.5ZM9 3.75V9.75H15V3.75H9ZM6 12V15H3V12H6ZM1.5 10.5V16.5H7.5V10.5H1.5Z" fill="#212121"/>
    <path d="M16.5 7.5V12H12V16.5H7.5V22.5H22.5V7.5H16.5ZM13.5 13.5H16.5V16.5H13.5V13.5ZM12 21H9V18H12V21ZM16.5 21H13.5V18H16.5V21ZM21 21H18V18H21V21ZM21 16.5H18V13.5H21V16.5ZM18 12V9H21V12H18Z" fill="#212121"/>
  </symbol>

  <symbol width="24" height="24" viewBox="0 0 24 24" id="implementation-icon">
    <path d="M10.634 11.056L2.14801 19.54L4.27001 21.661L12.755 13.176" stroke="#212121" stroke-width="1.5" stroke-linecap="round" stroke-linejoin="round"/>
    <path d="M10.634 11.056L12.048 9.64101C12.048 9.64101 12.402 6.45901 8.86603 2.92401L9.92603 1.86401L18.412 7.52001L17.352 8.58001L18.765 9.99501L19.826 8.93502L22.301 11.409L17.351 16.359L14.876 13.884L15.937 12.824L14.523 11.409L12.755 13.177L10.634 11.056Z" stroke="#212121" stroke-width="1.5" stroke-linecap="round" stroke-linejoin="round"/>
  </symbol>

  <symbol width="24" height="24" viewBox="0 0 24 24" id="optimization-icon">
    <path d="M11.003 2H10.006C6.724 2 5.084 2 3.92 2.814C3.48968 3.11498 3.11537 3.48896 2.814 3.919C2 5.08 2 6.72 2 10C2 13.28 2 14.919 2.814 16.081C3.116 16.511 3.49 16.885 3.92 17.186C5.084 18 6.724 18 10.006 18H14.009C17.291 18 18.932 18 20.095 17.186C20.525 16.886 20.9 16.511 21.201 16.081C21.816 15.204 21.966 14.094 22 13" stroke="#212121" stroke-width="1.5" stroke-linecap="round" stroke-linejoin="round"/>
    <path d="M18 9.714V11M18 9.714C17.4564 9.71781 16.9201 9.58968 16.4369 9.34061C15.9537 9.09154 15.5382 8.72897 15.226 8.284M18 9.714C18.5436 9.71781 19.0799 9.58868 19.5631 9.33961C20.0463 9.09054 20.4618 8.72797 20.774 8.283M18 3.285C19.157 3.285 20.176 3.853 20.774 4.715M15.226 4.717C15.5382 4.27203 15.9537 3.90946 16.4369 3.66039C16.9201 3.41132 17.4564 3.28319 18 3.287V2M15.226 4.717L14 3.93M15.226 4.717C14.8617 5.24019 14.6663 5.86144 14.6663 6.499C14.6663 7.13656 14.8617 7.75881 15.226 8.282L14 9.07M22 3.929L20.774 4.717C21.1383 5.24019 21.3337 5.86144 21.3337 6.499C21.3337 7.13656 21.1383 7.75881 20.774 8.282L22 9.07M11 15H13M12 18V22M8 22H16" stroke="#212121" stroke-width="1.5" stroke-linecap="round" stroke-linejoin="round"/>
  </symbol>

  <symbol width="59" height="58" viewBox="0 0 59 58" id="arrow-icon">
    <path d="M50.7144 57.0604C52.2151 55.0751 52.9933 48.624 57.2178 29.7669C58.2183 25.3007 59.5373 20.3386 58.7186 17.3609C57.8998 14.3831 55.2167 9.91724 49.2136 7.43604C46.212 6.19544 2.94707 -0.00756851 0.187866 -0.00756836V57.0604H50.7144Z" fill="#212121"/>
    <path d="M42.917 32.4591C43.3075 32.0685 43.3075 31.4354 42.917 31.0448L36.553 24.6809C36.1625 24.2904 35.5293 24.2904 35.1388 24.6809C34.7483 25.0714 34.7483 25.7046 35.1388 26.0951L40.7956 31.752L35.1388 37.4088C34.7483 37.7993 34.7483 38.4325 35.1388 38.823C35.5293 39.2135 36.1625 39.2135 36.553 38.823L42.917 32.4591ZM7.1915 32.752H42.2099V30.752H7.1915V32.752Z" fill="white"/>
  </symbol>

  <symbol width="601" height="248" viewBox="0 0 601 248" id="review-icon">
    <path d="M0 15.1581C0 6.43514 7.15711 -0.465727 15.8553 0.190734C96.6731 6.29011 459.621 34.0544 476.5 42C491.51 49.0655 567.366 173.526 598.566 225.492C604.546 235.451 597.323 248 585.707 248H15C6.71572 248 0 241.284 0 233V15.1581Z" fill="#E3E3E3"/>
    <path d="M1.5 15.1581C1.5 7.27204 7.95016 1.09839 15.7424 1.68648C56.1502 4.73608 167.086 13.2016 270.028 21.8977C321.501 26.2459 370.967 30.6511 408.617 34.4653C427.444 36.3726 443.305 38.1311 454.981 39.6597C460.82 40.4243 465.598 41.1294 469.17 41.7649C470.957 42.0828 472.428 42.3806 473.571 42.6565C474.742 42.9391 475.481 43.1782 475.861 43.3572C476.577 43.694 477.612 44.4585 478.971 45.744C480.306 47.0063 481.867 48.6875 483.634 50.7559C487.167 54.8913 491.456 60.4977 496.301 67.2206C505.987 80.6619 517.834 98.4796 530.2 117.719C554.927 156.194 581.682 200.285 597.28 226.265C602.649 235.206 596.178 246.5 585.707 246.5H15C7.54415 246.5 1.5 240.456 1.5 233V15.1581Z" stroke="#212121" stroke-opacity="0.46" stroke-width="3"/>
  </symbol>

  <symbol width="71" height="71" viewBox="0 0 71 71" id="left-icon">
    <rect y="35.3555" width="50" height="50" rx="10" transform="rotate(-45 0 35.3555)" fill="#E3E3E3"/>
    <path d="M17.4863 34.3056C17.0957 34.6961 17.0957 35.3293 17.4863 35.7198L23.8502 42.0838C24.2407 42.4743 24.8739 42.4743 25.2644 42.0838C25.655 41.6932 25.655 41.0601 25.2644 40.6695L19.6076 35.0127L25.2644 29.3558C25.655 28.9653 25.655 28.3322 25.2644 27.9416C24.8739 27.5511 24.2407 27.5511 23.8502 27.9416L17.4863 34.3056ZM51.1934 34.0127L18.1934 34.0127V36.0127L51.1934 36.0127V34.0127Z" fill="#212121"/>
  </symbol>

  <symbol width="71" height="71" viewBox="0 0 71 71" id="right-icon">
    <rect y="35.3555" width="50" height="50" rx="10" transform="rotate(-45 0 35.3555)" fill="#E3E3E3"/>
    <path d="M52.7071 35.7071C53.0976 35.3166 53.0976 34.6834 52.7071 34.2929L46.3431 27.9289C45.9526 27.5384 45.3195 27.5384 44.9289 27.9289C44.5384 28.3195 44.5384 28.9526 44.9289 29.3431L50.5858 35L44.9289 40.6569C44.5384 41.0474 44.5384 41.6805 44.9289 42.0711C45.3195 42.4616 45.9526 42.4616 46.3431 42.0711L52.7071 35.7071ZM19 36H52V34H19V36Z" fill="#212121"/>
  </symbol>

  <symbol width="31" height="31" viewBox="0 0 31 31" id="circle-icon">
    <path d="M15.5 10.3335C14.1297 10.3335 12.8155 10.8778 11.8466 11.8468C10.8777 12.8157 10.3333 14.1299 10.3333 15.5002C10.3333 16.8704 10.8777 18.1846 11.8466 19.1535C12.8155 20.1225 14.1297 20.6668 15.5 20.6668C16.8703 20.6668 18.1844 20.1225 19.1534 19.1535C20.1223 18.1846 20.6666 16.8704 20.6666 15.5002C20.6666 14.1299 20.1223 12.8157 19.1534 11.8468C18.1844 10.8778 16.8703 10.3335 15.5 10.3335Z" fill="#212121"/>
  </symbol>

  <symbol width="24" height="24" viewBox="0 0 24 24" id="linkedin-icon">
    <path d="M18 3C18.7956 3 19.5587 3.31607 20.1213 3.87868C20.6839 4.44129 21 5.20435 21 6V18C21 18.7956 20.6839 19.5587 20.1213 20.1213C19.5587 20.6839 18.7956 21 18 21H6C5.20435 21 4.44129 20.6839 3.87868 20.1213C3.31607 19.5587 3 18.7956 3 18V6C3 5.20435 3.31607 4.44129 3.87868 3.87868C4.44129 3.31607 5.20435 3 6 3H18ZM18 5H6C5.73478 5 5.48043 5.10536 5.29289 5.29289C5.10536 5.48043 5 5.73478 5 6V18C5 18.2652 5.10536 18.5196 5.29289 18.7071C5.48043 18.8946 5.73478 19 6 19H18C18.2652 19 18.5196 18.8946 18.7071 18.7071C18.8946 18.5196 19 18.2652 19 18V6C19 5.73478 18.8946 5.48043 18.7071 5.29289C18.5196 5.10536 18.2652 5 18 5ZM8 10C8.24493 10 8.48134 10.09 8.66437 10.2527C8.84741 10.4155 8.96434 10.6397 8.993 10.883L9 11V16C8.99972 16.2549 8.90212 16.5 8.72715 16.6854C8.55218 16.8707 8.31305 16.9822 8.05861 16.9972C7.80416 17.0121 7.55362 16.9293 7.35817 16.7657C7.16271 16.6021 7.0371 16.3701 7.007 16.117L7 16V11C7 10.7348 7.10536 10.4804 7.29289 10.2929C7.48043 10.1054 7.73478 10 8 10ZM11 9C11.2342 8.99996 11.461 9.08213 11.6408 9.23216C11.8206 9.3822 11.9421 9.59059 11.984 9.821C12.1854 9.70468 12.3934 9.60017 12.607 9.508C13.274 9.223 14.273 9.066 15.175 9.349C15.648 9.499 16.123 9.779 16.475 10.256C16.79 10.681 16.96 11.198 16.994 11.779L17 12V16C16.9997 16.2549 16.9021 16.5 16.7272 16.6854C16.5522 16.8707 16.313 16.9822 16.0586 16.9972C15.8042 17.0121 15.5536 16.9293 15.3582 16.7657C15.1627 16.6021 15.0371 16.3701 15.007 16.117L15 16V12C15 11.67 14.92 11.516 14.868 11.445C14.7933 11.3523 14.6904 11.2863 14.575 11.257C14.227 11.147 13.726 11.205 13.393 11.347C12.893 11.561 12.435 11.897 12.123 12.208L12 12.34V16C11.9997 16.2549 11.9021 16.5 11.7272 16.6854C11.5522 16.8707 11.313 16.9822 11.0586 16.9972C10.8042 17.0121 10.5536 16.9293 10.3582 16.7657C10.1627 16.6021 10.0371 16.3701 10.007 16.117L10 16V10C10 9.73478 10.1054 9.48043 10.2929 9.29289C10.4804 9.10536 10.7348 9 11 9ZM8 7C8.26522 7 8.51957 7.10536 8.70711 7.29289C8.89464 7.48043 9 7.73478 9 8C9 8.26522 8.89464 8.51957 8.70711 8.70711C8.51957 8.89464 8.26522 9 8 9C7.73478 9 7.48043 8.89464 7.29289 8.70711C7.10536 8.51957 7 8.26522 7 8C7 7.73478 7.10536 7.48043 7.29289 7.29289C7.48043 7.10536 7.73478 7 8 7Z" fill="#212121"/>
  </symbol>

  <symbol width="24" height="24" viewBox="0 0 24 24" id="facebook-icon">
    <path d="M20.625 2.625H3.375C2.96016 2.625 2.625 2.96016 2.625 3.375V20.625C2.625 21.0398 2.96016 21.375 3.375 21.375H20.625C21.0398 21.375 21.375 21.0398 21.375 20.625V3.375C21.375 2.96016 21.0398 2.625 20.625 2.625ZM19.875 19.875H15.5602V14.1141H17.9977L18.3633 11.2852H15.5602V9.47812C15.5602 8.65781 15.7875 8.1 16.9617 8.1H18.4594V5.56875C18.1992 5.53359 17.3109 5.45625 16.275 5.45625C14.1141 5.45625 12.6352 6.77578 12.6352 9.19687V11.2828H10.193V14.1117H12.6375V19.875H4.125V4.125H19.875V19.875Z" fill="#212121"/>
  </symbol>

  <symbol width="24" height="24" viewBox="0 0 24 24" id="instagram-icon">
    <path d="M17 8.5C17.8284 8.5 18.5 7.82843 18.5 7C18.5 6.17157 17.8284 5.5 17 5.5C16.1716 5.5 15.5 6.17157 15.5 7C15.5 7.82843 16.1716 8.5 17 8.5Z" fill="#212121"/>
    <path d="M16 3C18.76 3 21 5.24 21 8V16C21 18.76 18.76 21 16 21H8C5.24 21 3 18.76 3 16V8C3 5.24 5.24 3 8 3H12H16Z" stroke="#212121" stroke-width="2" stroke-linecap="round" stroke-linejoin="round"/>
    <path d="M12 8C14.21 8 16 9.79 16 12C16 14.21 14.21 16 12 16C9.79 16 8 14.21 8 12C8 9.79 9.79 8 12 8Z" stroke="#212121" stroke-width="2" stroke-linecap="round" stroke-linejoin="round"/>
  </symbol>
</svg>
